<mxfile host="app.diagrams.net" modified="2024-03-25T17:30:03.687Z" agent="Mozilla/5.0 (Windows NT 10.0; Win64; x64) AppleWebKit/537.36 (KHTML, like Gecko) Chrome/122.0.0.0 Safari/537.36" version="24.1.0" etag="7spO4LNW3UkDoxbmgoZ8" type="github">
  <diagram name="Page-1" id="YXSMfhhh4izKwDSswHFx">
    <mxGraphModel>
      <root>
        <mxCell id="0" />
        <mxCell id="1" parent="0" />
      </root>
    </mxGraphModel>
  </diagram>
</mxfile>
